<?xml version="1.0" encoding="utf-8"?>
<!-- Generator: Adobe Illustrator 22.1.0, SVG Export Plug-In . SVG Version: 6.00 Build 0)  -->
<svg version="1.1"
	 id="Layer_1" inkscape:version="0.92.3 (2405546, 2018-03-11)" sodipodi:docname="Brazilian_flag_icon_round.svg" xmlns:cc="http://creativecommons.org/ns#" xmlns:dc="http://purl.org/dc/elements/1.1/" xmlns:inkscape="http://www.inkscape.org/namespaces/inkscape" xmlns:rdf="http://www.w3.org/1999/02/22-rdf-syntax-ns#" xmlns:sodipodi="http://sodipodi.sourceforge.net/DTD/sodipodi-0.dtd" xmlns:svg="http://www.w3.org/2000/svg"
	 xmlns="http://www.w3.org/2000/svg" xmlns:xlink="http://www.w3.org/1999/xlink" x="0px" y="0px" viewBox="0 0 512 512"
	 style="enable-background:new 0 0 512 512;" xml:space="preserve">
<style type="text/css">
	.st0{fill:#AEAEAE;}
	.st1{fill:#FFFFFF;}
	.st2{fill:#707070;}
	.st3{clip-path:url(#SVGID_2_);fill:#FFFFFF;}
</style>
<sodipodi:namedview  bordercolor="#666666" borderopacity="1" gridtolerance="10" guidetolerance="10" id="namedview6472" inkscape:current-layer="Layer_1" inkscape:cx="-544.54238" inkscape:cy="256" inkscape:pageopacity="0" inkscape:pageshadow="2" inkscape:window-height="1017" inkscape:window-maximized="1" inkscape:window-width="1920" inkscape:window-x="-8" inkscape:window-y="-8" inkscape:zoom="0.4609375" objecttolerance="10" pagecolor="#ffffff" showgrid="false">
	</sodipodi:namedview>
<circle id="path17332" class="st0" cx="256" cy="256" r="256"/>
<g id="g6441">
</g>
<g id="g6443">
</g>
<g id="g6445">
</g>
<g id="g6447">
</g>
<g id="g6449">
</g>
<g id="g6451">
</g>
<g id="g6453">
</g>
<g id="g6455">
</g>
<g id="g6457">
</g>
<g id="g6459">
</g>
<g id="g6461">
</g>
<g id="g6463">
</g>
<g id="g6465">
</g>
<g id="g6467">
</g>
<g id="g6469">
</g>
<g id="g16285" transform="matrix(0.8103375,0,0,0.8103375,60.859741,43.279542)">
	<rect id="rect7208" x="240.8" y="262.5" class="st0" width="87.8" height="87.8"/>
	<path id="path7210" inkscape:connector-curvature="0" class="st1" d="M-58,262.5l298.8,190.8l298.8-190.8L240.8,71.7L-58,262.5z"/>
	<circle id="circle7212" class="st2" cx="240.8" cy="262.5" r="126"/>
	<g>
		<defs>
			<circle id="SVGID_1_" cx="240.8" cy="262.5" r="102.1"/>
		</defs>
		<clipPath id="SVGID_2_">
			<use xlink:href="#SVGID_1_"  style="overflow:visible;"/>
		</clipPath>
		<path id="path7217" inkscape:connector-curvature="0" class="st3" d="M-137.2,514.5c0-169,137-306,306-306s306,137,306,306h-18
			c0-159.1-128.9-288-288-288s-288,128.9-288,288H-137.2z"/>
	</g>
	<g id="g7249" transform="matrix(0.17142857,0,0,0.17142857,168.81356,514.50847)">
		<path id="use7219" inkscape:connector-curvature="0" class="st0" d="M-206.9-1684.8c17.3-2.1,29.3-19.4,26.9-38.6
			c-2.4-19.1-18.2-32.9-35.5-30.9c-17.3,2.1-29.3,19.4-26.9,38.6C-240-1696.6-224.1-1682.8-206.9-1684.8 M-208.5-1697.7
			c10.1-1.3,17.1-12.1,15.7-24.1c-1.5-12-10.9-20.8-21-19.6c-10.1,1.3-17.1,12.1-15.7,24.1C-228-1705.3-218.6-1696.5-208.5-1697.7"
			/>
		<g id="use7221" transform="rotate(-4,-24305.02,848.75)">
			<path id="path12789" inkscape:connector-curvature="0" class="st0" d="M-31.5,0l13,0l0-26l28,0c12.2,0,22-9.8,22-22
				s-9.8-22-22-22l-40,0L-31.5,0z M-18.5-39l27,0c5,0,9-4,9-9c0-5-4-9-9-9l-27,0L-18.5-39z"/>
			<path id="path12791" inkscape:connector-curvature="0" class="st0" d="M28,0c0-10,0-32-15-32l-19,0c22,0,22,22,22,32"/>
		</g>
		<path id="use7223" inkscape:connector-curvature="0" class="st0" d="M-61.1-1696.7l33-0.6c16.6-0.3,29.8-14,29.5-30.5c0,0,0,0,0,0
			l-0.2-10c-0.3-16.6-14-29.8-30.5-29.5c0,0,0,0,0,0l-33,0.6L-61.1-1696.7z M-48.3-1709.9l19-0.3c10.5-0.2,18.8-8.8,18.7-19.3
			c0,0,0,0,0,0l-0.1-6c-0.2-10.5-8.8-18.8-19.3-18.7c0,0,0,0,0,0l-19,0.3L-48.3-1709.9z"/>
		<path id="use7225" inkscape:connector-curvature="0" class="st0" d="M27.8-1697.6l63,2.2l0.5-13l-51-1.8l0.6-18l40,1.4l0.4-12
			l-40-1.4l0.5-14l48,1.7l0.5-13l-60-2.1L27.8-1697.6z"/>
		<path id="use7227" inkscape:connector-curvature="0" class="st0" d="M116.6-1693.8l12,1l4.2-47.8l9.8,49l11,1l18.1-46.6l-4.2,47.8
			l12,1l6.1-69.7l-17.4-1.5l-18.1,46.6l-9.8-49l-17.4-1.5L116.6-1693.8z"/>
		<path id="use7229" inkscape:connector-curvature="0" class="st0" d="M261.6-1677.4l51.7,8.9l2-11.8l-39.9-6.9l2.7-15.8l32.5,5.6
			l2-11.8l-32.5-5.6l1.9-10.8l38.7,6.6l2-11.8l-50.5-8.7L261.6-1677.4z"/>
		<path id="use7231" inkscape:connector-curvature="0" class="st0" d="M394.5-1651.3l12.6,3.3l6.5-25.2l27.1,7
			c11.8,3,23.8-4,26.8-15.8c3-11.8-4-23.8-15.8-26.8l0,0l-38.7-10L394.5-1651.3z M416.9-1685.8l26.1,6.8c4.8,1.2,9.7-1.6,11-6.5
			s-1.6-9.7-6.5-11l-26.1-6.8L416.9-1685.8z"/>
		<g id="use7233" transform="rotate(17.5,5514.4173,848.75)">
			<path id="path12795" inkscape:connector-curvature="0" class="st0" d="M-31.5,0l13,0l0-26l28,0c12.2,0,22-9.8,22-22
				s-9.8-22-22-22l-40,0L-31.5,0z M-18.5-39l27,0c5,0,9-4,9-9s-4-9-9-9l-27,0L-18.5-39z"/>
			<path id="path12797" inkscape:connector-curvature="0" class="st0" d="M28,0c0-10,0-32-15-32l-19,0c22,0,22,22,22,32"/>
		</g>
		<path id="use7235" inkscape:connector-curvature="0" class="st0" d="M594.5-1590c26.1,9.8,48.7,13.9,59.5-15.1
			c10.8-29-1.5-60.4-35-50.5C609.1-1647.2,620.5-1610,594.5-1590 M599-1602.2c9.6,3.6,20.8-2.7,25-14.1c4.3-11.4-0.1-23.5-9.6-27.1
			C609.8-1638.5,622-1613.2,599-1602.2"/>
		<g id="use7237" transform="rotate(23.5,4080.523,848.75)">
			<path id="path12781" inkscape:connector-curvature="0" class="st0" d="M0,0c17.4,0,31.5-15.7,31.5-35c0-19.3-14.1-35-31.5-35
				s-31.5,15.7-31.5,35C-31.5-15.7-17.4,0,0,0 M0-13c10.2,0,18.5-9.8,18.5-22c0-12.2-8.3-22-18.5-22s-18.5,9.8-18.5,22
				C-18.5-22.8-10.2-13,0-13"/>
			
				<rect id="rect12783" x="13.3" y="-43.2" transform="matrix(2.489588e-06 1 -1 2.489588e-06 -11.7442 -48.2465)" class="st0" width="10" height="26.5"/>
			
				<rect id="rect12785" x="9" y="-22.5" transform="matrix(2.489588e-06 1 -1 2.489588e-06 9.0058 -43.9965)" class="st0" width="35" height="10"/>
		</g>
		<g id="use7239" transform="rotate(26.5,3604.5124,848.75)">
			<path id="path12801" inkscape:connector-curvature="0" class="st0" d="M-31.5,0l13,0l0-26l28,0c12.2,0,22-9.8,22-22
				s-9.8-22-22-22l-40,0L-31.5,0z M-18.5-39l27,0c5,0,9-4,9-9s-4-9-9-9l-27,0L-18.5-39z"/>
			<path id="path12803" inkscape:connector-curvature="0" class="st0" d="M28,0c0-10,0-32-15-32l-19,0c22,0,22,22,22,32"/>
		</g>
		<path id="use7241" inkscape:connector-curvature="0" class="st0" d="M808.5-1492.9l54.8,31l6.4-11.3l-44.4-25.1l8.9-15.7
			l34.8,19.7l5.9-10.4l-34.8-19.7l6.9-12.2l41.8,23.6l6.4-11.3l-52.2-29.5L808.5-1492.9z"/>
		<path id="use7243" inkscape:connector-curvature="0" class="st0" d="M910.6-1458.7c-3.8,5.9,0.1,12.5,8.5,17.9
			c8.4,5.4,14.2,5.2,16.6,1.4c7.7-12-36.6-29.5-23-50.5c11.8-18,31.9-4,39.5,0.8c7.6,4.8,19.8,17.3,10.3,31.8l-12.9-8.2
			c4-6.3-0.4-12.4-7.1-16.7c-6.5-4.2-11.8-6.1-15.7,0.1c-6.5,9.8,36.9,28.2,23.6,49.1c-9.8,15.4-26.9,8.7-38.3,1.4
			c-9.7-6.2-24.2-20.7-14.7-35.5L910.6-1458.7z"/>
		<path id="use7245" inkscape:connector-curvature="0" class="st0" d="M985.7-1409c-4.1,5.7-0.6,12.5,7.5,18.3
			c8.1,5.8,13.9,5.9,16.5,2.3c8.3-11.6-35-31.4-20.3-51.6c12.7-17.4,32.1-2.3,39.4,2.9c7.3,5.2,18.8,18.4,8.6,32.3l-12.4-8.9
			c4.4-6.1,0.3-12.4-6.3-17.1c-6.3-4.5-11.5-6.7-15.7-0.8c-7,9.4,35.3,30.1,21,50.3c-10.6,14.9-27.3,7.3-38.3-0.6
			c-9.4-6.7-23.1-22-12.9-36.2L985.7-1409z"/>
		<path id="use7247" inkscape:connector-curvature="0" class="st0" d="M1056.7-1328.5c13.6,10.8,34.4,7.3,46.4-7.8s10.8-36.2-2.9-47
			C1097.7-1380.8,1210.6-1248.4,1056.7-1328.5 M1064.8-1338.6c8.3-3.1,11.9-25.2,27.4-34.4c-8-6.4-20.6-3.8-28.2,5.7
			C1056.5-1357.9,1056.8-1345,1064.8-1338.6L1064.8-1338.6"/>
	</g>
	<g id="αCMi" transform="matrix(5.4,0,0,5.4,137.95642,239.8799)">
		<g id="g13323">
			<path id="path13319" inkscape:connector-curvature="0" class="st1" d="M0-1l-0.3,1l0.5,0.2"/>
			<path id="path13321" inkscape:connector-curvature="0" class="st1" d="M0-1l0.3,1l-0.5,0.2"/>
		</g>
		<g id="g13329" transform="rotate(72)">
			<path id="path13325" inkscape:connector-curvature="0" class="st1" d="M0-1l-0.3,1l0.5,0.2"/>
			<path id="path13327" inkscape:connector-curvature="0" class="st1" d="M0-1l0.3,1l-0.5,0.2"/>
		</g>
		<g id="g13335" transform="rotate(-72)">
			<path id="path13331" inkscape:connector-curvature="0" class="st1" d="M0-1l-0.3,1l0.5,0.2"/>
			<path id="path13333" inkscape:connector-curvature="0" class="st1" d="M0-1l0.3,1l-0.5,0.2"/>
		</g>
		<g id="g13341" transform="rotate(144)">
			<path id="path13337" inkscape:connector-curvature="0" class="st1" d="M0-1l-0.3,1l0.5,0.2"/>
			<path id="path13339" inkscape:connector-curvature="0" class="st1" d="M0-1l0.3,1l-0.5,0.2"/>
		</g>
		<g id="g13347" transform="rotate(-144)">
			<path id="path13343" inkscape:connector-curvature="0" class="st1" d="M0-1l-0.3,1l0.5,0.2"/>
			<path id="path13345" inkscape:connector-curvature="0" class="st1" d="M0-1l0.3,1l-0.5,0.2"/>
		</g>
	</g>
	<g id="αCMa" transform="matrix(5.4,0,0,5.4,149.09928,292.85133)">
		<g id="g13355">
			<path id="path13351" inkscape:connector-curvature="0" class="st1" d="M0-1l-0.3,1l0.5,0.2"/>
			<path id="path13353" inkscape:connector-curvature="0" class="st1" d="M0-1l0.3,1l-0.5,0.2"/>
		</g>
		<g id="g13361" transform="rotate(72)">
			<path id="path13357" inkscape:connector-curvature="0" class="st1" d="M0-1l-0.3,1l0.5,0.2"/>
			<path id="path13359" inkscape:connector-curvature="0" class="st1" d="M0-1l0.3,1l-0.5,0.2"/>
		</g>
		<g id="g13367" transform="rotate(-72)">
			<path id="path13363" inkscape:connector-curvature="0" class="st1" d="M0-1l-0.3,1l0.5,0.2"/>
			<path id="path13365" inkscape:connector-curvature="0" class="st1" d="M0-1l0.3,1l-0.5,0.2"/>
		</g>
		<g id="g13373" transform="rotate(144)">
			<path id="path13369" inkscape:connector-curvature="0" class="st1" d="M0-1l-0.3,1l0.5,0.2"/>
			<path id="path13371" inkscape:connector-curvature="0" class="st1" d="M0-1l0.3,1l-0.5,0.2"/>
		</g>
		<g id="g13379" transform="rotate(-144)">
			<path id="path13375" inkscape:connector-curvature="0" class="st1" d="M0-1l-0.3,1l0.5,0.2"/>
			<path id="path13377" inkscape:connector-curvature="0" class="st1" d="M0-1l0.3,1l-0.5,0.2"/>
		</g>
	</g>
	<g id="βCMa" transform="matrix(4.5,0,0,4.5,133.6707,304.16561)">
		<g id="g13035">
			<path id="path13031" inkscape:connector-curvature="0" class="st1" d="M0-1l-0.3,1l0.5,0.2"/>
			<path id="path13033" inkscape:connector-curvature="0" class="st1" d="M0-1l0.3,1l-0.5,0.2"/>
		</g>
		<g id="g13041" transform="rotate(72)">
			<path id="path13037" inkscape:connector-curvature="0" class="st1" d="M0-1l-0.3,1l0.5,0.2"/>
			<path id="path13039" inkscape:connector-curvature="0" class="st1" d="M0-1l0.3,1l-0.5,0.2"/>
		</g>
		<g id="g13047" transform="rotate(-72)">
			<path id="path13043" inkscape:connector-curvature="0" class="st1" d="M0-1l-0.3,1l0.5,0.2"/>
			<path id="path13045" inkscape:connector-curvature="0" class="st1" d="M0-1l0.3,1l-0.5,0.2"/>
		</g>
		<g id="g13053" transform="rotate(144)">
			<path id="path13049" inkscape:connector-curvature="0" class="st1" d="M0-1l-0.3,1l0.5,0.2"/>
			<path id="path13051" inkscape:connector-curvature="0" class="st1" d="M0-1l0.3,1l-0.5,0.2"/>
		</g>
		<g id="g13059" transform="rotate(-144)">
			<path id="path13055" inkscape:connector-curvature="0" class="st1" d="M0-1l-0.3,1l0.5,0.2"/>
			<path id="path13057" inkscape:connector-curvature="0" class="st1" d="M0-1l0.3,1l-0.5,0.2"/>
		</g>
	</g>
	<g id="γCMa" transform="matrix(2.5714286,0,0,2.5714286,161.44213,285.13704)">
		<g id="g13803">
			<path id="path13799" inkscape:connector-curvature="0" class="st1" d="M0-1l-0.3,1l0.5,0.2"/>
			<path id="path13801" inkscape:connector-curvature="0" class="st1" d="M0-1l0.3,1l-0.5,0.2"/>
		</g>
		<g id="g13809" transform="rotate(72)">
			<path id="path13805" inkscape:connector-curvature="0" class="st1" d="M0-1l-0.3,1l0.5,0.2"/>
			<path id="path13807" inkscape:connector-curvature="0" class="st1" d="M0-1l0.3,1l-0.5,0.2"/>
		</g>
		<g id="g13815" transform="rotate(-72)">
			<path id="path13811" inkscape:connector-curvature="0" class="st1" d="M0-1l-0.3,1l0.5,0.2"/>
			<path id="path13813" inkscape:connector-curvature="0" class="st1" d="M0-1l0.3,1l-0.5,0.2"/>
		</g>
		<g id="g13821" transform="rotate(144)">
			<path id="path13817" inkscape:connector-curvature="0" class="st1" d="M0-1l-0.3,1l0.5,0.2"/>
			<path id="path13819" inkscape:connector-curvature="0" class="st1" d="M0-1l0.3,1l-0.5,0.2"/>
		</g>
		<g id="g13827" transform="rotate(-144)">
			<path id="path13823" inkscape:connector-curvature="0" class="st1" d="M0-1l-0.3,1l0.5,0.2"/>
			<path id="path13825" inkscape:connector-curvature="0" class="st1" d="M0-1l0.3,1l-0.5,0.2"/>
		</g>
	</g>
	<g id="δCMa" transform="matrix(4.5,0,0,4.5,175.32785,305.36561)">
		<g id="g13067">
			<path id="path13063" inkscape:connector-curvature="0" class="st1" d="M0-1l-0.3,1l0.5,0.2"/>
			<path id="path13065" inkscape:connector-curvature="0" class="st1" d="M0-1l0.3,1l-0.5,0.2"/>
		</g>
		<g id="g13073" transform="rotate(72)">
			<path id="path13069" inkscape:connector-curvature="0" class="st1" d="M0-1l-0.3,1l0.5,0.2"/>
			<path id="path13071" inkscape:connector-curvature="0" class="st1" d="M0-1l0.3,1l-0.5,0.2"/>
		</g>
		<g id="g13079" transform="rotate(-72)">
			<path id="path13075" inkscape:connector-curvature="0" class="st1" d="M0-1l-0.3,1l0.5,0.2"/>
			<path id="path13077" inkscape:connector-curvature="0" class="st1" d="M0-1l0.3,1l-0.5,0.2"/>
		</g>
		<g id="g13085" transform="rotate(144)">
			<path id="path13081" inkscape:connector-curvature="0" class="st1" d="M0-1l-0.3,1l0.5,0.2"/>
			<path id="path13083" inkscape:connector-curvature="0" class="st1" d="M0-1l0.3,1l-0.5,0.2"/>
		</g>
		<g id="g13091" transform="rotate(-144)">
			<path id="path13087" inkscape:connector-curvature="0" class="st1" d="M0-1l-0.3,1l0.5,0.2"/>
			<path id="path13089" inkscape:connector-curvature="0" class="st1" d="M0-1l0.3,1l-0.5,0.2"/>
		</g>
	</g>
	<g id="εCMa" transform="matrix(3.6,0,0,3.6,171.55642,317.8799)">
		<g id="g13515">
			<path id="path13511" inkscape:connector-curvature="0" class="st1" d="M0-1l-0.3,1l0.5,0.2"/>
			<path id="path13513" inkscape:connector-curvature="0" class="st1" d="M0-1l0.3,1l-0.5,0.2"/>
		</g>
		<g id="g13521" transform="rotate(72)">
			<path id="path13517" inkscape:connector-curvature="0" class="st1" d="M0-1l-0.3,1l0.5,0.2"/>
			<path id="path13519" inkscape:connector-curvature="0" class="st1" d="M0-1l0.3,1l-0.5,0.2"/>
		</g>
		<g id="g13527" transform="rotate(-72)">
			<path id="path13523" inkscape:connector-curvature="0" class="st1" d="M0-1l-0.3,1l0.5,0.2"/>
			<path id="path13525" inkscape:connector-curvature="0" class="st1" d="M0-1l0.3,1l-0.5,0.2"/>
		</g>
		<g id="g13533" transform="rotate(144)">
			<path id="path13529" inkscape:connector-curvature="0" class="st1" d="M0-1l-0.3,1l0.5,0.2"/>
			<path id="path13531" inkscape:connector-curvature="0" class="st1" d="M0-1l0.3,1l-0.5,0.2"/>
		</g>
		<g id="g13539" transform="rotate(-144)">
			<path id="path13535" inkscape:connector-curvature="0" class="st1" d="M0-1l-0.3,1l0.5,0.2"/>
			<path id="path13537" inkscape:connector-curvature="0" class="st1" d="M0-1l0.3,1l-0.5,0.2"/>
		</g>
	</g>
	<g id="αVir" transform="matrix(5.4,0,0,5.4,279.89927,223.42276)">
		<g id="g13387">
			<path id="path13383" inkscape:connector-curvature="0" class="st1" d="M0-1l-0.3,1l0.5,0.2"/>
			<path id="path13385" inkscape:connector-curvature="0" class="st1" d="M0-1l0.3,1l-0.5,0.2"/>
		</g>
		<g id="g13393" transform="rotate(72)">
			<path id="path13389" inkscape:connector-curvature="0" class="st1" d="M0-1l-0.3,1l0.5,0.2"/>
			<path id="path13391" inkscape:connector-curvature="0" class="st1" d="M0-1l0.3,1l-0.5,0.2"/>
		</g>
		<g id="g13399" transform="rotate(-72)">
			<path id="path13395" inkscape:connector-curvature="0" class="st1" d="M0-1l-0.3,1l0.5,0.2"/>
			<path id="path13397" inkscape:connector-curvature="0" class="st1" d="M0-1l0.3,1l-0.5,0.2"/>
		</g>
		<g id="g13405" transform="rotate(144)">
			<path id="path13401" inkscape:connector-curvature="0" class="st1" d="M0-1l-0.3,1l0.5,0.2"/>
			<path id="path13403" inkscape:connector-curvature="0" class="st1" d="M0-1l0.3,1l-0.5,0.2"/>
		</g>
		<g id="g13411" transform="rotate(-144)">
			<path id="path13407" inkscape:connector-curvature="0" class="st1" d="M0-1l-0.3,1l0.5,0.2"/>
			<path id="path13409" inkscape:connector-curvature="0" class="st1" d="M0-1l0.3,1l-0.5,0.2"/>
		</g>
	</g>
	<g id="αSco" transform="matrix(5.4,0,0,5.4,329.09927,306.73704)">
		<g id="g13419">
			<path id="path13415" inkscape:connector-curvature="0" class="st1" d="M0-1l-0.3,1l0.5,0.2"/>
			<path id="path13417" inkscape:connector-curvature="0" class="st1" d="M0-1l0.3,1l-0.5,0.2"/>
		</g>
		<g id="g13425" transform="rotate(72)">
			<path id="path13421" inkscape:connector-curvature="0" class="st1" d="M0-1l-0.3,1l0.5,0.2"/>
			<path id="path13423" inkscape:connector-curvature="0" class="st1" d="M0-1l0.3,1l-0.5,0.2"/>
		</g>
		<g id="g13431" transform="rotate(-72)">
			<path id="path13427" inkscape:connector-curvature="0" class="st1" d="M0-1l-0.3,1l0.5,0.2"/>
			<path id="path13429" inkscape:connector-curvature="0" class="st1" d="M0-1l0.3,1l-0.5,0.2"/>
		</g>
		<g id="g13437" transform="rotate(144)">
			<path id="path13433" inkscape:connector-curvature="0" class="st1" d="M0-1l-0.3,1l0.5,0.2"/>
			<path id="path13435" inkscape:connector-curvature="0" class="st1" d="M0-1l0.3,1l-0.5,0.2"/>
		</g>
		<g id="g13443" transform="rotate(-144)">
			<path id="path13439" inkscape:connector-curvature="0" class="st1" d="M0-1l-0.3,1l0.5,0.2"/>
			<path id="path13441" inkscape:connector-curvature="0" class="st1" d="M0-1l0.3,1l-0.5,0.2"/>
		</g>
	</g>
	<g id="βSco" transform="matrix(3.6,0,0,3.6,346.58499,307.93704)">
		<g id="g13547">
			<path id="path13543" inkscape:connector-curvature="0" class="st1" d="M0-1l-0.3,1l0.5,0.2"/>
			<path id="path13545" inkscape:connector-curvature="0" class="st1" d="M0-1l0.3,1l-0.5,0.2"/>
		</g>
		<g id="g13553" transform="rotate(72)">
			<path id="path13549" inkscape:connector-curvature="0" class="st1" d="M0-1l-0.3,1l0.5,0.2"/>
			<path id="path13551" inkscape:connector-curvature="0" class="st1" d="M0-1l0.3,1l-0.5,0.2"/>
		</g>
		<g id="g13559" transform="rotate(-72)">
			<path id="path13555" inkscape:connector-curvature="0" class="st1" d="M0-1l-0.3,1l0.5,0.2"/>
			<path id="path13557" inkscape:connector-curvature="0" class="st1" d="M0-1l0.3,1l-0.5,0.2"/>
		</g>
		<g id="g13565" transform="rotate(144)">
			<path id="path13561" inkscape:connector-curvature="0" class="st1" d="M0-1l-0.3,1l0.5,0.2"/>
			<path id="path13563" inkscape:connector-curvature="0" class="st1" d="M0-1l0.3,1l-0.5,0.2"/>
		</g>
		<g id="g13571" transform="rotate(-144)">
			<path id="path13567" inkscape:connector-curvature="0" class="st1" d="M0-1l-0.3,1l0.5,0.2"/>
			<path id="path13569" inkscape:connector-curvature="0" class="st1" d="M0-1l0.3,1l-0.5,0.2"/>
		</g>
	</g>
	<g id="εSco" transform="matrix(4.5,0,0,4.5,334.24213,317.8799)">
		<g id="g13099">
			<path id="path13095" inkscape:connector-curvature="0" class="st1" d="M0-1l-0.3,1l0.5,0.2"/>
			<path id="path13097" inkscape:connector-curvature="0" class="st1" d="M0-1l0.3,1l-0.5,0.2"/>
		</g>
		<g id="g13105" transform="rotate(72)">
			<path id="path13101" inkscape:connector-curvature="0" class="st1" d="M0-1l-0.3,1l0.5,0.2"/>
			<path id="path13103" inkscape:connector-curvature="0" class="st1" d="M0-1l0.3,1l-0.5,0.2"/>
		</g>
		<g id="g13111" transform="rotate(-72)">
			<path id="path13107" inkscape:connector-curvature="0" class="st1" d="M0-1l-0.3,1l0.5,0.2"/>
			<path id="path13109" inkscape:connector-curvature="0" class="st1" d="M0-1l0.3,1l-0.5,0.2"/>
		</g>
		<g id="g13117" transform="rotate(144)">
			<path id="path13113" inkscape:connector-curvature="0" class="st1" d="M0-1l-0.3,1l0.5,0.2"/>
			<path id="path13115" inkscape:connector-curvature="0" class="st1" d="M0-1l0.3,1l-0.5,0.2"/>
		</g>
		<g id="g13123" transform="rotate(-144)">
			<path id="path13119" inkscape:connector-curvature="0" class="st1" d="M0-1l-0.3,1l0.5,0.2"/>
			<path id="path13121" inkscape:connector-curvature="0" class="st1" d="M0-1l0.3,1l-0.5,0.2"/>
		</g>
	</g>
	<g id="θSco" transform="matrix(4.5,0,0,4.5,303.89927,344.2799)">
		<g id="g13131">
			<path id="path13127" inkscape:connector-curvature="0" class="st1" d="M0-1l-0.3,1l0.5,0.2"/>
			<path id="path13129" inkscape:connector-curvature="0" class="st1" d="M0-1l0.3,1l-0.5,0.2"/>
		</g>
		<g id="g13137" transform="rotate(72)">
			<path id="path13133" inkscape:connector-curvature="0" class="st1" d="M0-1l-0.3,1l0.5,0.2"/>
			<path id="path13135" inkscape:connector-curvature="0" class="st1" d="M0-1l0.3,1l-0.5,0.2"/>
		</g>
		<g id="g13143" transform="rotate(-72)">
			<path id="path13139" inkscape:connector-curvature="0" class="st1" d="M0-1l-0.3,1l0.5,0.2"/>
			<path id="path13141" inkscape:connector-curvature="0" class="st1" d="M0-1l0.3,1l-0.5,0.2"/>
		</g>
		<g id="g13149" transform="rotate(144)">
			<path id="path13145" inkscape:connector-curvature="0" class="st1" d="M0-1l-0.3,1l0.5,0.2"/>
			<path id="path13147" inkscape:connector-curvature="0" class="st1" d="M0-1l0.3,1l-0.5,0.2"/>
		</g>
		<g id="g13155" transform="rotate(-144)">
			<path id="path13151" inkscape:connector-curvature="0" class="st1" d="M0-1l-0.3,1l0.5,0.2"/>
			<path id="path13153" inkscape:connector-curvature="0" class="st1" d="M0-1l0.3,1l-0.5,0.2"/>
		</g>
	</g>
	<g id="ιSco" transform="matrix(3.6,0,0,3.6,303.72785,356.96561)">
		<g id="g13579">
			<path id="path13575" inkscape:connector-curvature="0" class="st1" d="M0-1l-0.3,1l0.5,0.2"/>
			<path id="path13577" inkscape:connector-curvature="0" class="st1" d="M0-1l0.3,1l-0.5,0.2"/>
		</g>
		<g id="g13585" transform="rotate(72)">
			<path id="path13581" inkscape:connector-curvature="0" class="st1" d="M0-1l-0.3,1l0.5,0.2"/>
			<path id="path13583" inkscape:connector-curvature="0" class="st1" d="M0-1l0.3,1l-0.5,0.2"/>
		</g>
		<g id="g13591" transform="rotate(-72)">
			<path id="path13587" inkscape:connector-curvature="0" class="st1" d="M0-1l-0.3,1l0.5,0.2"/>
			<path id="path13589" inkscape:connector-curvature="0" class="st1" d="M0-1l0.3,1l-0.5,0.2"/>
		</g>
		<g id="g13597" transform="rotate(144)">
			<path id="path13593" inkscape:connector-curvature="0" class="st1" d="M0-1l-0.3,1l0.5,0.2"/>
			<path id="path13595" inkscape:connector-curvature="0" class="st1" d="M0-1l0.3,1l-0.5,0.2"/>
		</g>
		<g id="g13603" transform="rotate(-144)">
			<path id="path13599" inkscape:connector-curvature="0" class="st1" d="M0-1l-0.3,1l0.5,0.2"/>
			<path id="path13601" inkscape:connector-curvature="0" class="st1" d="M0-1l0.3,1l-0.5,0.2"/>
		</g>
	</g>
	<g id="κSco" transform="matrix(3.6,0,0,3.6,316.41356,334.33704)">
		<g id="g13611">
			<path id="path13607" inkscape:connector-curvature="0" class="st1" d="M0-1l-0.3,1l0.5,0.2"/>
			<path id="path13609" inkscape:connector-curvature="0" class="st1" d="M0-1l0.3,1l-0.5,0.2"/>
		</g>
		<g id="g13617" transform="rotate(72)">
			<path id="path13613" inkscape:connector-curvature="0" class="st1" d="M0-1l-0.3,1l0.5,0.2"/>
			<path id="path13615" inkscape:connector-curvature="0" class="st1" d="M0-1l0.3,1l-0.5,0.2"/>
		</g>
		<g id="g13623" transform="rotate(-72)">
			<path id="path13619" inkscape:connector-curvature="0" class="st1" d="M0-1l-0.3,1l0.5,0.2"/>
			<path id="path13621" inkscape:connector-curvature="0" class="st1" d="M0-1l0.3,1l-0.5,0.2"/>
		</g>
		<g id="g13629" transform="rotate(144)">
			<path id="path13625" inkscape:connector-curvature="0" class="st1" d="M0-1l-0.3,1l0.5,0.2"/>
			<path id="path13627" inkscape:connector-curvature="0" class="st1" d="M0-1l0.3,1l-0.5,0.2"/>
		</g>
		<g id="g13635" transform="rotate(-144)">
			<path id="path13631" inkscape:connector-curvature="0" class="st1" d="M0-1l-0.3,1l0.5,0.2"/>
			<path id="path13633" inkscape:connector-curvature="0" class="st1" d="M0-1l0.3,1l-0.5,0.2"/>
		</g>
	</g>
	<g id="λSco" transform="matrix(4.5,0,0,4.5,326.52785,327.99418)">
		<g id="g13163">
			<path id="path13159" inkscape:connector-curvature="0" class="st1" d="M0-1l-0.3,1l0.5,0.2"/>
			<path id="path13161" inkscape:connector-curvature="0" class="st1" d="M0-1l0.3,1l-0.5,0.2"/>
		</g>
		<g id="g13169" transform="rotate(72)">
			<path id="path13165" inkscape:connector-curvature="0" class="st1" d="M0-1l-0.3,1l0.5,0.2"/>
			<path id="path13167" inkscape:connector-curvature="0" class="st1" d="M0-1l0.3,1l-0.5,0.2"/>
		</g>
		<g id="g13175" transform="rotate(-72)">
			<path id="path13171" inkscape:connector-curvature="0" class="st1" d="M0-1l-0.3,1l0.5,0.2"/>
			<path id="path13173" inkscape:connector-curvature="0" class="st1" d="M0-1l0.3,1l-0.5,0.2"/>
		</g>
		<g id="g13181" transform="rotate(144)">
			<path id="path13177" inkscape:connector-curvature="0" class="st1" d="M0-1l-0.3,1l0.5,0.2"/>
			<path id="path13179" inkscape:connector-curvature="0" class="st1" d="M0-1l0.3,1l-0.5,0.2"/>
		</g>
		<g id="g13187" transform="rotate(-144)">
			<path id="path13183" inkscape:connector-curvature="0" class="st1" d="M0-1l-0.3,1l0.5,0.2"/>
			<path id="path13185" inkscape:connector-curvature="0" class="st1" d="M0-1l0.3,1l-0.5,0.2"/>
		</g>
	</g>
	<g id="μSco" transform="matrix(3.6,0,0,3.6,303.38499,331.93704)">
		<g id="g13643">
			<path id="path13639" inkscape:connector-curvature="0" class="st1" d="M0-1l-0.3,1l0.5,0.2"/>
			<path id="path13641" inkscape:connector-curvature="0" class="st1" d="M0-1l0.3,1l-0.5,0.2"/>
		</g>
		<g id="g13649" transform="rotate(72)">
			<path id="path13645" inkscape:connector-curvature="0" class="st1" d="M0-1l-0.3,1l0.5,0.2"/>
			<path id="path13647" inkscape:connector-curvature="0" class="st1" d="M0-1l0.3,1l-0.5,0.2"/>
		</g>
		<g id="g13655" transform="rotate(-72)">
			<path id="path13651" inkscape:connector-curvature="0" class="st1" d="M0-1l-0.3,1l0.5,0.2"/>
			<path id="path13653" inkscape:connector-curvature="0" class="st1" d="M0-1l0.3,1l-0.5,0.2"/>
		</g>
		<g id="g13661" transform="rotate(144)">
			<path id="path13657" inkscape:connector-curvature="0" class="st1" d="M0-1l-0.3,1l0.5,0.2"/>
			<path id="path13659" inkscape:connector-curvature="0" class="st1" d="M0-1l0.3,1l-0.5,0.2"/>
		</g>
		<g id="g13667" transform="rotate(-144)">
			<path id="path13663" inkscape:connector-curvature="0" class="st1" d="M0-1l-0.3,1l0.5,0.2"/>
			<path id="path13665" inkscape:connector-curvature="0" class="st1" d="M0-1l0.3,1l-0.5,0.2"/>
		</g>
	</g>
	<g id="αHya" transform="matrix(4.5,0,0,4.5,192.81356,267.65133)">
		<g id="g13195">
			<path id="path13191" inkscape:connector-curvature="0" class="st1" d="M0-1l-0.3,1l0.5,0.2"/>
			<path id="path13193" inkscape:connector-curvature="0" class="st1" d="M0-1l0.3,1l-0.5,0.2"/>
		</g>
		<g id="g13201" transform="rotate(72)">
			<path id="path13197" inkscape:connector-curvature="0" class="st1" d="M0-1l-0.3,1l0.5,0.2"/>
			<path id="path13199" inkscape:connector-curvature="0" class="st1" d="M0-1l0.3,1l-0.5,0.2"/>
		</g>
		<g id="g13207" transform="rotate(-72)">
			<path id="path13203" inkscape:connector-curvature="0" class="st1" d="M0-1l-0.3,1l0.5,0.2"/>
			<path id="path13205" inkscape:connector-curvature="0" class="st1" d="M0-1l0.3,1l-0.5,0.2"/>
		</g>
		<g id="g13213" transform="rotate(144)">
			<path id="path13209" inkscape:connector-curvature="0" class="st1" d="M0-1l-0.3,1l0.5,0.2"/>
			<path id="path13211" inkscape:connector-curvature="0" class="st1" d="M0-1l0.3,1l-0.5,0.2"/>
		</g>
		<g id="g13219" transform="rotate(-144)">
			<path id="path13215" inkscape:connector-curvature="0" class="st1" d="M0-1l-0.3,1l0.5,0.2"/>
			<path id="path13217" inkscape:connector-curvature="0" class="st1" d="M0-1l0.3,1l-0.5,0.2"/>
		</g>
	</g>
	<g id="γHya" transform="matrix(3.6,0,0,3.6,275.09927,256.16561)">
		<g id="g13675">
			<path id="path13671" inkscape:connector-curvature="0" class="st1" d="M0-1l-0.3,1l0.5,0.2"/>
			<path id="path13673" inkscape:connector-curvature="0" class="st1" d="M0-1l0.3,1l-0.5,0.2"/>
		</g>
		<g id="g13681" transform="rotate(72)">
			<path id="path13677" inkscape:connector-curvature="0" class="st1" d="M0-1l-0.3,1l0.5,0.2"/>
			<path id="path13679" inkscape:connector-curvature="0" class="st1" d="M0-1l0.3,1l-0.5,0.2"/>
		</g>
		<g id="g13687" transform="rotate(-72)">
			<path id="path13683" inkscape:connector-curvature="0" class="st1" d="M0-1l-0.3,1l0.5,0.2"/>
			<path id="path13685" inkscape:connector-curvature="0" class="st1" d="M0-1l0.3,1l-0.5,0.2"/>
		</g>
		<g id="g13693" transform="rotate(144)">
			<path id="path13689" inkscape:connector-curvature="0" class="st1" d="M0-1l-0.3,1l0.5,0.2"/>
			<path id="path13691" inkscape:connector-curvature="0" class="st1" d="M0-1l0.3,1l-0.5,0.2"/>
		</g>
		<g id="g13699" transform="rotate(-144)">
			<path id="path13695" inkscape:connector-curvature="0" class="st1" d="M0-1l-0.3,1l0.5,0.2"/>
			<path id="path13697" inkscape:connector-curvature="0" class="st1" d="M0-1l0.3,1l-0.5,0.2"/>
		</g>
	</g>
	<g id="αCru" transform="matrix(5.4,0,0,5.4,240.81356,319.0799)">
		<g id="g13451">
			<path id="path13447" inkscape:connector-curvature="0" class="st1" d="M0-1l-0.3,1l0.5,0.2"/>
			<path id="path13449" inkscape:connector-curvature="0" class="st1" d="M0-1l0.3,1l-0.5,0.2"/>
		</g>
		<g id="g13457" transform="rotate(72)">
			<path id="path13453" inkscape:connector-curvature="0" class="st1" d="M0-1l-0.3,1l0.5,0.2"/>
			<path id="path13455" inkscape:connector-curvature="0" class="st1" d="M0-1l0.3,1l-0.5,0.2"/>
		</g>
		<g id="g13463" transform="rotate(-72)">
			<path id="path13459" inkscape:connector-curvature="0" class="st1" d="M0-1l-0.3,1l0.5,0.2"/>
			<path id="path13461" inkscape:connector-curvature="0" class="st1" d="M0-1l0.3,1l-0.5,0.2"/>
		</g>
		<g id="g13469" transform="rotate(144)">
			<path id="path13465" inkscape:connector-curvature="0" class="st1" d="M0-1l-0.3,1l0.5,0.2"/>
			<path id="path13467" inkscape:connector-curvature="0" class="st1" d="M0-1l0.3,1l-0.5,0.2"/>
		</g>
		<g id="g13475" transform="rotate(-144)">
			<path id="path13471" inkscape:connector-curvature="0" class="st1" d="M0-1l-0.3,1l0.5,0.2"/>
			<path id="path13473" inkscape:connector-curvature="0" class="st1" d="M0-1l0.3,1l-0.5,0.2"/>
		</g>
	</g>
	<g id="βCru" transform="matrix(4.5,0,0,4.5,255.38499,294.05133)">
		<g id="g13227">
			<path id="path13223" inkscape:connector-curvature="0" class="st1" d="M0-1l-0.3,1l0.5,0.2"/>
			<path id="path13225" inkscape:connector-curvature="0" class="st1" d="M0-1l0.3,1l-0.5,0.2"/>
		</g>
		<g id="g13233" transform="rotate(72)">
			<path id="path13229" inkscape:connector-curvature="0" class="st1" d="M0-1l-0.3,1l0.5,0.2"/>
			<path id="path13231" inkscape:connector-curvature="0" class="st1" d="M0-1l0.3,1l-0.5,0.2"/>
		</g>
		<g id="g13239" transform="rotate(-72)">
			<path id="path13235" inkscape:connector-curvature="0" class="st1" d="M0-1l-0.3,1l0.5,0.2"/>
			<path id="path13237" inkscape:connector-curvature="0" class="st1" d="M0-1l0.3,1l-0.5,0.2"/>
		</g>
		<g id="g13245" transform="rotate(144)">
			<path id="path13241" inkscape:connector-curvature="0" class="st1" d="M0-1l-0.3,1l0.5,0.2"/>
			<path id="path13243" inkscape:connector-curvature="0" class="st1" d="M0-1l0.3,1l-0.5,0.2"/>
		</g>
		<g id="g13251" transform="rotate(-144)">
			<path id="path13247" inkscape:connector-curvature="0" class="st1" d="M0-1l-0.3,1l0.5,0.2"/>
			<path id="path13249" inkscape:connector-curvature="0" class="st1" d="M0-1l0.3,1l-0.5,0.2"/>
		</g>
	</g>
	<g id="γCru" transform="matrix(4.5,0,0,4.5,240.81356,282.73704)">
		<g id="g13259">
			<path id="path13255" inkscape:connector-curvature="0" class="st1" d="M0-1l-0.3,1l0.5,0.2"/>
			<path id="path13257" inkscape:connector-curvature="0" class="st1" d="M0-1l0.3,1l-0.5,0.2"/>
		</g>
		<g id="g13265" transform="rotate(72)">
			<path id="path13261" inkscape:connector-curvature="0" class="st1" d="M0-1l-0.3,1l0.5,0.2"/>
			<path id="path13263" inkscape:connector-curvature="0" class="st1" d="M0-1l0.3,1l-0.5,0.2"/>
		</g>
		<g id="g13271" transform="rotate(-72)">
			<path id="path13267" inkscape:connector-curvature="0" class="st1" d="M0-1l-0.3,1l0.5,0.2"/>
			<path id="path13269" inkscape:connector-curvature="0" class="st1" d="M0-1l0.3,1l-0.5,0.2"/>
		</g>
		<g id="g13277" transform="rotate(144)">
			<path id="path13273" inkscape:connector-curvature="0" class="st1" d="M0-1l-0.3,1l0.5,0.2"/>
			<path id="path13275" inkscape:connector-curvature="0" class="st1" d="M0-1l0.3,1l-0.5,0.2"/>
		</g>
		<g id="g13283" transform="rotate(-144)">
			<path id="path13279" inkscape:connector-curvature="0" class="st1" d="M0-1l-0.3,1l0.5,0.2"/>
			<path id="path13281" inkscape:connector-curvature="0" class="st1" d="M0-1l0.3,1l-0.5,0.2"/>
		</g>
	</g>
	<g id="δCru" transform="matrix(3.6,0,0,3.6,228.12785,294.05133)">
		<g id="g13707">
			<path id="path13703" inkscape:connector-curvature="0" class="st1" d="M0-1l-0.3,1l0.5,0.2"/>
			<path id="path13705" inkscape:connector-curvature="0" class="st1" d="M0-1l0.3,1l-0.5,0.2"/>
		</g>
		<g id="g13713" transform="rotate(72)">
			<path id="path13709" inkscape:connector-curvature="0" class="st1" d="M0-1l-0.3,1l0.5,0.2"/>
			<path id="path13711" inkscape:connector-curvature="0" class="st1" d="M0-1l0.3,1l-0.5,0.2"/>
		</g>
		<g id="g13719" transform="rotate(-72)">
			<path id="path13715" inkscape:connector-curvature="0" class="st1" d="M0-1l-0.3,1l0.5,0.2"/>
			<path id="path13717" inkscape:connector-curvature="0" class="st1" d="M0-1l0.3,1l-0.5,0.2"/>
		</g>
		<g id="g13725" transform="rotate(144)">
			<path id="path13721" inkscape:connector-curvature="0" class="st1" d="M0-1l-0.3,1l0.5,0.2"/>
			<path id="path13723" inkscape:connector-curvature="0" class="st1" d="M0-1l0.3,1l-0.5,0.2"/>
		</g>
		<g id="g13731" transform="rotate(-144)">
			<path id="path13727" inkscape:connector-curvature="0" class="st1" d="M0-1l-0.3,1l0.5,0.2"/>
			<path id="path13729" inkscape:connector-curvature="0" class="st1" d="M0-1l0.3,1l-0.5,0.2"/>
		</g>
	</g>
	<g id="εCru" transform="matrix(2.5714286,0,0,2.5714286,234.4707,302.79418)">
		<g id="g13835">
			<path id="path13831" inkscape:connector-curvature="0" class="st1" d="M0-1l-0.3,1l0.5,0.2"/>
			<path id="path13833" inkscape:connector-curvature="0" class="st1" d="M0-1l0.3,1l-0.5,0.2"/>
		</g>
		<g id="g13841" transform="rotate(72)">
			<path id="path13837" inkscape:connector-curvature="0" class="st1" d="M0-1l-0.3,1l0.5,0.2"/>
			<path id="path13839" inkscape:connector-curvature="0" class="st1" d="M0-1l0.3,1l-0.5,0.2"/>
		</g>
		<g id="g13847" transform="rotate(-72)">
			<path id="path13843" inkscape:connector-curvature="0" class="st1" d="M0-1l-0.3,1l0.5,0.2"/>
			<path id="path13845" inkscape:connector-curvature="0" class="st1" d="M0-1l0.3,1l-0.5,0.2"/>
		</g>
		<g id="g13853" transform="rotate(144)">
			<path id="path13849" inkscape:connector-curvature="0" class="st1" d="M0-1l-0.3,1l0.5,0.2"/>
			<path id="path13851" inkscape:connector-curvature="0" class="st1" d="M0-1l0.3,1l-0.5,0.2"/>
		</g>
		<g id="g13859" transform="rotate(-144)">
			<path id="path13855" inkscape:connector-curvature="0" class="st1" d="M0-1l-0.3,1l0.5,0.2"/>
			<path id="path13857" inkscape:connector-curvature="0" class="st1" d="M0-1l0.3,1l-0.5,0.2"/>
		</g>
	</g>
	<g id="αTrA" transform="matrix(4.5,0,0,4.5,278.52785,347.36561)">
		<g id="g13291">
			<path id="path13287" inkscape:connector-curvature="0" class="st1" d="M0-1l-0.3,1l0.5,0.2"/>
			<path id="path13289" inkscape:connector-curvature="0" class="st1" d="M0-1l0.3,1l-0.5,0.2"/>
		</g>
		<g id="g13297" transform="rotate(72)">
			<path id="path13293" inkscape:connector-curvature="0" class="st1" d="M0-1l-0.3,1l0.5,0.2"/>
			<path id="path13295" inkscape:connector-curvature="0" class="st1" d="M0-1l0.3,1l-0.5,0.2"/>
		</g>
		<g id="g13303" transform="rotate(-72)">
			<path id="path13299" inkscape:connector-curvature="0" class="st1" d="M0-1l-0.3,1l0.5,0.2"/>
			<path id="path13301" inkscape:connector-curvature="0" class="st1" d="M0-1l0.3,1l-0.5,0.2"/>
		</g>
		<g id="g13309" transform="rotate(144)">
			<path id="path13305" inkscape:connector-curvature="0" class="st1" d="M0-1l-0.3,1l0.5,0.2"/>
			<path id="path13307" inkscape:connector-curvature="0" class="st1" d="M0-1l0.3,1l-0.5,0.2"/>
		</g>
		<g id="g13315" transform="rotate(-144)">
			<path id="path13311" inkscape:connector-curvature="0" class="st1" d="M0-1l-0.3,1l0.5,0.2"/>
			<path id="path13313" inkscape:connector-curvature="0" class="st1" d="M0-1l0.3,1l-0.5,0.2"/>
		</g>
	</g>
	<g id="βTrA" transform="matrix(3.6,0,0,3.6,289.32785,336.22276)">
		<g id="g13739">
			<path id="path13735" inkscape:connector-curvature="0" class="st1" d="M0-1l-0.3,1l0.5,0.2"/>
			<path id="path13737" inkscape:connector-curvature="0" class="st1" d="M0-1l0.3,1l-0.5,0.2"/>
		</g>
		<g id="g13745" transform="rotate(72)">
			<path id="path13741" inkscape:connector-curvature="0" class="st1" d="M0-1l-0.3,1l0.5,0.2"/>
			<path id="path13743" inkscape:connector-curvature="0" class="st1" d="M0-1l0.3,1l-0.5,0.2"/>
		</g>
		<g id="g13751" transform="rotate(-72)">
			<path id="path13747" inkscape:connector-curvature="0" class="st1" d="M0-1l-0.3,1l0.5,0.2"/>
			<path id="path13749" inkscape:connector-curvature="0" class="st1" d="M0-1l0.3,1l-0.5,0.2"/>
		</g>
		<g id="g13757" transform="rotate(144)">
			<path id="path13753" inkscape:connector-curvature="0" class="st1" d="M0-1l-0.3,1l0.5,0.2"/>
			<path id="path13755" inkscape:connector-curvature="0" class="st1" d="M0-1l0.3,1l-0.5,0.2"/>
		</g>
		<g id="g13763" transform="rotate(-144)">
			<path id="path13759" inkscape:connector-curvature="0" class="st1" d="M0-1l-0.3,1l0.5,0.2"/>
			<path id="path13761" inkscape:connector-curvature="0" class="st1" d="M0-1l0.3,1l-0.5,0.2"/>
		</g>
	</g>
	<g id="γTrA" transform="matrix(3.6,0,0,3.6,268.58499,333.13704)">
		<g id="g13771">
			<path id="path13767" inkscape:connector-curvature="0" class="st1" d="M0-1l-0.3,1l0.5,0.2"/>
			<path id="path13769" inkscape:connector-curvature="0" class="st1" d="M0-1l0.3,1l-0.5,0.2"/>
		</g>
		<g id="g13777" transform="rotate(72)">
			<path id="path13773" inkscape:connector-curvature="0" class="st1" d="M0-1l-0.3,1l0.5,0.2"/>
			<path id="path13775" inkscape:connector-curvature="0" class="st1" d="M0-1l0.3,1l-0.5,0.2"/>
		</g>
		<g id="g13783" transform="rotate(-72)">
			<path id="path13779" inkscape:connector-curvature="0" class="st1" d="M0-1l-0.3,1l0.5,0.2"/>
			<path id="path13781" inkscape:connector-curvature="0" class="st1" d="M0-1l0.3,1l-0.5,0.2"/>
		</g>
		<g id="g13789" transform="rotate(144)">
			<path id="path13785" inkscape:connector-curvature="0" class="st1" d="M0-1l-0.3,1l0.5,0.2"/>
			<path id="path13787" inkscape:connector-curvature="0" class="st1" d="M0-1l0.3,1l-0.5,0.2"/>
		</g>
		<g id="g13795" transform="rotate(-144)">
			<path id="path13791" inkscape:connector-curvature="0" class="st1" d="M0-1l-0.3,1l0.5,0.2"/>
			<path id="path13793" inkscape:connector-curvature="0" class="st1" d="M0-1l0.3,1l-0.5,0.2"/>
		</g>
	</g>
	<g id="αCar" transform="matrix(5.4,0,0,5.4,190.24213,329.36561)">
		<g id="g13483">
			<path id="path13479" inkscape:connector-curvature="0" class="st1" d="M0-1l-0.3,1l0.5,0.2"/>
			<path id="path13481" inkscape:connector-curvature="0" class="st1" d="M0-1l0.3,1l-0.5,0.2"/>
		</g>
		<g id="g13489" transform="rotate(72)">
			<path id="path13485" inkscape:connector-curvature="0" class="st1" d="M0-1l-0.3,1l0.5,0.2"/>
			<path id="path13487" inkscape:connector-curvature="0" class="st1" d="M0-1l0.3,1l-0.5,0.2"/>
		</g>
		<g id="g13495" transform="rotate(-72)">
			<path id="path13491" inkscape:connector-curvature="0" class="st1" d="M0-1l-0.3,1l0.5,0.2"/>
			<path id="path13493" inkscape:connector-curvature="0" class="st1" d="M0-1l0.3,1l-0.5,0.2"/>
		</g>
		<g id="g13501" transform="rotate(144)">
			<path id="path13497" inkscape:connector-curvature="0" class="st1" d="M0-1l-0.3,1l0.5,0.2"/>
			<path id="path13499" inkscape:connector-curvature="0" class="st1" d="M0-1l0.3,1l-0.5,0.2"/>
		</g>
		<g id="g13507" transform="rotate(-144)">
			<path id="path13503" inkscape:connector-curvature="0" class="st1" d="M0-1l-0.3,1l0.5,0.2"/>
			<path id="path13505" inkscape:connector-curvature="0" class="st1" d="M0-1l0.3,1l-0.5,0.2"/>
		</g>
	</g>
	<g id="σOct" transform="matrix(1.8,0,0,1.8,240.81356,361.0799)">
		<g id="g13867">
			<path id="path13863" inkscape:connector-curvature="0" class="st1" d="M0-1l-0.3,1l0.5,0.2"/>
			<path id="path13865" inkscape:connector-curvature="0" class="st1" d="M0-1l0.3,1l-0.5,0.2"/>
		</g>
		<g id="g13873" transform="rotate(72)">
			<path id="path13869" inkscape:connector-curvature="0" class="st1" d="M0-1l-0.3,1l0.5,0.2"/>
			<path id="path13871" inkscape:connector-curvature="0" class="st1" d="M0-1l0.3,1l-0.5,0.2"/>
		</g>
		<g id="g13879" transform="rotate(-72)">
			<path id="path13875" inkscape:connector-curvature="0" class="st1" d="M0-1l-0.3,1l0.5,0.2"/>
			<path id="path13877" inkscape:connector-curvature="0" class="st1" d="M0-1l0.3,1l-0.5,0.2"/>
		</g>
		<g id="g13885" transform="rotate(144)">
			<path id="path13881" inkscape:connector-curvature="0" class="st1" d="M0-1l-0.3,1l0.5,0.2"/>
			<path id="path13883" inkscape:connector-curvature="0" class="st1" d="M0-1l0.3,1l-0.5,0.2"/>
		</g>
		<g id="g13891" transform="rotate(-144)">
			<path id="path13887" inkscape:connector-curvature="0" class="st1" d="M0-1l-0.3,1l0.5,0.2"/>
			<path id="path13889" inkscape:connector-curvature="0" class="st1" d="M0-1l0.3,1l-0.5,0.2"/>
		</g>
	</g>
</g>
</svg>
